<svg xmlns="http://www.w3.org/2000/svg" viewBox="817 335 226 235"><path fill="#d7ed87" d="M988.47,437.18v-35.82c0-5.5-4.46-9.96-9.96-9.96h-94.37c-2.51,0-4.55-2.04-4.55-4.55v-36.75c0-5.5-4.46-9.96-9.96-9.96h-37.7c-5.5,0-9.96,4.46-9.96,9.96v37.7c0,5.5,4.46,9.96,9.96,9.96h36.75c2.51,0,4.55,2.04,4.55,4.55v151.98c0,5.5,4.46,9.96,9.96,9.96h37.7c5.5,0,9.96-4.46,9.96-9.96v-95.31c0-5.5,4.46-9.96,9.96-9.96h35.12c2.51,0,4.55,2.04,4.55,4.55v100.73c0,5.5,4.46,9.96,9.96,9.96h37.63c5.5,0,9.96-4.46,9.96-9.96v-102.6c0-5.5-4.46-9.96-9.96-9.96h-35.05c-2.51,0-4.55-2.04-4.55-4.55Z"/></svg>
